<?xml version="1.0" encoding="UTF-8"?>
<svg id="_图层_1" data-name="图层 1" xmlns="http://www.w3.org/2000/svg" viewBox="0 0 3248.1 1166">
  <defs>
    <style>
      .cls-1 {
        fill: #fff;
      }

      .cls-2 {
        font-family: MicrosoftYaHei-Bold, 'Microsoft YaHei';
        font-size: 135px;
        font-weight: 700;
        letter-spacing: .16em;
      }

      .cls-2, .cls-3 {
        fill: #6a2dd6;
      }

      .cls-4 {
        fill: #6c2cd6;
      }
    </style>
  </defs>
  <rect class="cls-1" x="0" y=".75" width="3248.1" height="1166"/>
  <path class="cls-3" d="M564.66,273.14c-171.13-17.17-323.78,107.64-340.95,278.77-17.17,171.13,107.64,323.78,278.77,340.95,171.13,17.17,323.78-107.64,340.95-278.77,17.17-171.13-107.64-323.78-278.77-340.95Zm-167.8,589.17c-16.5-8.08-32.1-17.59-46.74-28.3-89.09-71.13-124.42-194.85-79.19-305.23,55.15-134.6,210.23-199.09,344.52-143.19,41.81,17.41,76.73,44.34,103.31,77.21,13.49,16.68,13.53,40.53,.36,57.47-17.27,22.21-50.28,24.2-69.84,3.99-19.67-20.33-43.72-37.08-71.51-48.66-110.5-46.06-236.38,6.67-281.16,117.7-37.85,93.82-4.49,199.22,75.37,255.33,8.86,5.38,18.07,10.36,27.61,14.92-1.18-.53-2.09-.95-2.73-1.23Zm203.92-265.86s-.01,.05-.02,.08c-.9,4.71-2.29,9.39-4.23,13.98-14.78,34.92-55.07,51.25-90,36.47-30.84-13.06-47.17-46.01-40.38-77.6,0-.02,.02-.05,.02-.08,.89-4.14,2.17-8.27,3.88-12.32,14.79-34.92,55.08-51.25,90-36.47,30.31,12.83,46.59,44.87,40.72,75.94Zm-149.09,183.94c-41.72-17.37-76.57-44.22-103.14-76.99-13.54-16.69-13.93-40.47-.75-57.45,.14-.19,.28-.37,.42-.54,17.13-22.08,49.95-24.1,69.34-3.98,19.73,20.46,43.87,37.32,71.8,48.96,110.5,46.06,236.37-6.68,281.16-117.7,37.85-93.82,4.49-199.22-75.37-255.33-8.86-5.38-18.05-10.35-27.58-14.9,1.16,.53,2.06,.93,2.7,1.22,16.5,8.08,32.1,17.59,46.74,28.31,89.09,71.12,124.42,194.85,79.19,305.22-55.15,134.6-210.23,199.09-344.52,143.19Z"/>
  <g>
    <polygon class="cls-4" points="1459.01 750.4 1343.76 750.4 988.54 277.77 1103.79 277.77 1459.01 750.4"/>
    <path class="cls-4" d="M2162.83,750.4h-95.42l-204.06-472.63h91.69c2.26,0,4.31,1.34,5.2,3.42l202.59,469.21Z"/>
    <path class="cls-4" d="M1655.52,750.4h95.42s204.06-472.63,204.06-472.63h-91.69c-2.26,0-4.31,1.34-5.2,3.42l-202.59,469.21Z"/>
    <g>
      <polygon class="cls-4" points="1299.62 478.01 1450.12 277.77 1334.86 277.77 1241.85 401.53 1299.62 478.01"/>
      <polygon class="cls-4" points="1219.55 431.2 979.64 750.4 1094.9 750.4 1277.32 507.68 1219.55 431.2"/>
    </g>
    <path class="cls-4" d="M1526.71,483.32h133.38c0,44.48-36.11,80.59-80.59,80.59h-133.38c0-44.48,36.11-80.59,80.59-80.59Z"/>
    <path class="cls-4" d="M2574.26,563.88h-188.34c10.62-48.41,34.35-76.73,76.73-76.73h111.61v76.73Z"/>
    <path class="cls-4" d="M2028.77,627.35h-188.34c10.62-48.41,34.35-76.73,76.73-76.73h111.61v76.73Z"/>
    <path class="cls-4" d="M2564.62,487.15c2.43,11.04,3.73,22.51,3.73,34.28,0,87.54-70.97,158.51-158.51,158.51s-158.51-70.97-158.51-158.51,70.97-158.51,158.51-158.51c53.6,0,100.99,26.61,129.68,67.34h100.15c-34.21-93.8-124.21-160.78-229.85-160.78-135.09,0-244.59,109.51-244.59,244.59s109.51,244.59,244.59,244.59,244.59-109.51,244.59-244.59c0-9.1-.51-18.08-1.48-26.93h-88.31Z"/>
    <rect class="cls-4" x="2719.62" y="276.71" width="79.62" height="474.31" rx="6" ry="6"/>
  </g>
  <text class="cls-2" transform="translate(981.64 940.5)"><tspan x="0" y="0" xml:space="preserve">交 叉 智 能   计 算 未 来 </tspan></text>
</svg>